<?xml version="1.0" encoding="UTF-8"?>
<svg id="Laag_1" data-name="Laag 1" xmlns="http://www.w3.org/2000/svg" xmlns:xlink="http://www.w3.org/1999/xlink" viewBox="0 0 4045.32 1260.59">
  <defs>
    <style>
      .cls-1 {
        fill: url(#Nieuwe_verloopstaal_1-7);
      }

      .cls-2 {
        fill: url(#Nieuwe_verloopstaal_1-5);
      }

      .cls-3 {
        fill: url(#Nieuwe_verloopstaal_1-2);
      }

      .cls-4 {
        fill: #1d1d1b;
      }

      .cls-5 {
        fill: url(#Nieuwe_verloopstaal_1-9);
      }

      .cls-6 {
        fill: url(#Nieuwe_verloopstaal_1-8);
      }

      .cls-7 {
        fill: url(#Nieuwe_verloopstaal_1-6);
      }

      .cls-8 {
        fill: url(#Nieuwe_verloopstaal_1-4);
      }

      .cls-9 {
        fill: url(#Nieuwe_verloopstaal_1);
      }

      .cls-10 {
        fill: url(#Nieuwe_verloopstaal_1-3);
      }

      .cls-11 {
        fill: #304157;
      }
    </style>
    <linearGradient id="Nieuwe_verloopstaal_1" data-name="Nieuwe verloopstaal 1" x1="192.64" y1="1073.47" x2="1575.11" y2="1073.47" gradientUnits="userSpaceOnUse">
      <stop offset="0" stop-color="#597d8e"/>
      <stop offset=".47" stop-color="#c8dae6"/>
      <stop offset=".99" stop-color="#f4efeb"/>
    </linearGradient>
    <linearGradient id="Nieuwe_verloopstaal_1-2" data-name="Nieuwe verloopstaal 1" y1="1084.23" y2="1084.23" xlink:href="#Nieuwe_verloopstaal_1"/>
    <linearGradient id="Nieuwe_verloopstaal_1-3" data-name="Nieuwe verloopstaal 1" x1="192.64" y1="592.11" x2="1575.11" y2="592.11" xlink:href="#Nieuwe_verloopstaal_1"/>
    <linearGradient id="Nieuwe_verloopstaal_1-4" data-name="Nieuwe verloopstaal 1" y1="1107.45" y2="1107.45" xlink:href="#Nieuwe_verloopstaal_1"/>
    <linearGradient id="Nieuwe_verloopstaal_1-5" data-name="Nieuwe verloopstaal 1" y1="1081.17" y2="1081.17" xlink:href="#Nieuwe_verloopstaal_1"/>
    <linearGradient id="Nieuwe_verloopstaal_1-6" data-name="Nieuwe verloopstaal 1" y1="1118.18" y2="1118.18" xlink:href="#Nieuwe_verloopstaal_1"/>
    <linearGradient id="Nieuwe_verloopstaal_1-7" data-name="Nieuwe verloopstaal 1" y1="1087.73" y2="1087.73" xlink:href="#Nieuwe_verloopstaal_1"/>
    <linearGradient id="Nieuwe_verloopstaal_1-8" data-name="Nieuwe verloopstaal 1" x1="1476.86" y1="1090.8" x2="1477.35" y2="1090.8" xlink:href="#Nieuwe_verloopstaal_1"/>
    <linearGradient id="Nieuwe_verloopstaal_1-9" data-name="Nieuwe verloopstaal 1" x1="1227.52" y1="1062.45" x2="1229.67" y2="1062.45" xlink:href="#Nieuwe_verloopstaal_1"/>
  </defs>
  <g>
    <path class="cls-9" d="M1419.87,1069.42c10.67,2.97,20.95,5.53,31.02,8.1-8.68-3.16-18.96-6.12-31.02-8.1Z"/>
    <polygon class="cls-3" points="1474.39 1083.83 1469.05 1082.46 1480.32 1086.01 1474.39 1083.83"/>
    <path class="cls-10" d="M1325.48,1070.6l-.79-.59c-31.31-1.54-62.25-3.1-95.01-7.42,12.2,1.69,9.6,3.29-6.1,3.47l-12.66-3.55c28.84-1.58,57.87-2.96,84.94,3.16.13-.01,12.45-.79,18.75-1.19,8.88,1.58,8.3,3.57,10.08,5.53l19.16,1.19c-13.05-4.94-55.51-11.64-55.51-11.46-81.95-2.77-159.18-1.38-234.43-2.77-5.73,1.19-9.87,2.59-17.58,1.78-5.92-1.18-11.86-1.96-17.77-2.55l-32.79-.99-11.57.37h-.08s-.29.02-.29.02c-6.2.62-4.42,1.79-.7,2.76,3.17.59,6.02,1.27,8.64,1.9,1.2.25,2.2.48,2.83.67-.91-.21-1.85-.44-2.83-.67-2.58-.55-6.07-1.22-8.64-1.9-5.13-.97-10.86-1.77-17.58-2.15-4.64,0-9.36,0-14.16-.06,3.41-.05,6.89-.14,10.38-.25,1.29.09,2.55.2,3.78.31l18.28-.6s.06,0,.09,0h.28s5.26-.59,5.26-.59l-75.05-2.96c-5.73,0-11.26,0-15.61.2-17.98-.2-36.14,0-47-4.34l-13.23-1.39,2.36.8c-1.98-.41-3.56-.8-4.75-1-18.75-2.17-37.32-4.53-55.89-8.09-36.34-6.32-72.48-15.01-108.22-27.07-115.74-39.3-214.1-111.38-247.47-233.24-11.45-13.44-19.75-22.52-38.91-33.38-13.82-4.94-27.46-10.07-40.5-16.4-26.07-12.25-51.14-28.05-68.34-49.38-37.71-45.24-17.57-104.86,28.46-149.31,44.62-51.75,93.8-97.57,145.16-138.65,52.53-40.89,104.08-80.77,162.15-95.2,57.86-14.61,118.3-11.26,174,6.71,13.82,4.75,27.45,9.68,40.48,15.8l14.02,7.12c4.55,1.77-7.9-2.77,10.67,4.15l26.47,4.75c31.2,5.51,62.4,10.26,93.82,14.21,62.79,7.9,126,14.02,191.57,14.61,32.98.2,66.35-.78,101.32-6.51,34.17-6.91,74.26-12.45,110.19-52.14,27.86-30.62,33.19-92.04-3.95-133.7-35.55-37.93-78.02-48.59-116.13-57.68-77.4-15.39-150.69-13.03-200.86-11.44-133.5,19.16-60.82,44.23-55.1,44.64,40.69,9.28,76.04,10.47,121.26,12.64,40.11,3.45,95.05,3.06,154.56,29.02,0,0,.01-.02.02-.02-23.51-12.28-4.58-10.25,29.49,4.59,19.36,9.28,37.73,28.44,33.97,52.33-1.77,23.5-23.7,36.34-45.83,41.08-64.78,11.46-154.83,8.69-248.45,2.38-47-3.36-95.38-8.5-143-15.59-11.03-1.67-22.22-3.5-32.95-5.33l5.89,2.95.59.4c-4.93-1.78,11.86,4.54-11.25-4.14h.4l1.97.38c.79.14,1.59.27,2.39.41l-9.9-4.95c-6.11-3.16-12.25-5.52-18.37-8.29-24.69-10.28-49.77-18.17-75.05-23.91-50.17-11.85-108.03-11.64-169.45,5.34-82.75,22.71-141.21,74.66-196.51,119.29-55.91,47.8-107.05,99.73-153.06,158.59-24.69,28.04-49.79,78.61-41.68,128.77,7.31,52.73,45.42,90.45,80.57,112.18,17.97,11.44,36.54,20.34,55.31,27.84,8.32,3.54,16.78,6.3,25.28,9.25-.03-.22.79.04,2.95,1.03-.98-.35-1.97-.69-2.95-1.03.11.74,10.07,7.03,11.45,9.32,9.68,9.28,18.17,19.94,20.93,30.21,1.58,2.38,1.38,5.14,1.97,7.7l.59,3.77.2.98.2.39v.39c4.15,20.93,1.38,6.12,2.36,10.86.98,2.77,1.38,3.95,2.17,5.53,4.94,11.86,10.47,21.34,16.4,31.02,52.93,78.61,126.8,113.75,193.14,138.44,48.79,19.35,102.12,35.55,143.4,43.05,64.79,11.26,122.45,11.86,174.79,10.27-58.87-.59-103.69-.79-170.44-10.86-44.23-7.91,32.39-1.97,61.81-1.97,12.65-.4,31.6,8.89,44.44,8.1,27.65,1.58,52.34-.59,81.37-1.77,12.25-1.19,10.66,5.52,16.79,4.93,39.69-.59,70.11-8.89,95.19-6.71,19.34,1,36.54,2.17,53.33,3.16,10.65.4,21.12.79,32.18.6l21.54-1.78c51.55-3.75,111.18-7.51,166.29-6.32ZM644.09,1007.4c22.32,5.13,40.1,12.84,55.7,20.34-17.59-3.36-39.69-10.86-55.7-20.34Z"/>
    <path class="cls-8" d="M1543.11,1115.65c-10.46-5.73-21.12-11.26-31.98-16.4,5.32,2.96,10.26,6.31,15.18,10.07,6.72,4.15,10.88,4.74,16.8,6.32Z"/>
    <path class="cls-2" d="M1468.86,1082.46h.19l-18.17-4.94c6.12,2.39,11.86,4.74,16.4,7.32-3.36-2.17-4.74-3.76,1.58-2.38Z"/>
    <path class="cls-7" d="M1533.24,1130.85c-21.13-13.24-51.55-18.77-87.89-28.24-5.91-1.19-2.77-7.12-14.62-8.89-27.65-5.53-51.74-6.32-77.81-9.48-12.06,0-30.41-8.89-42.66-8.11-28.64-.39-102.12,7.91-58.86,8.11,64.58.78,106.45,1.18,161.74,12.25,45.24,7.51,87.91,21.52,130.76,43.05,12.83,7.51,21.12,11.25,31.2,20.73-10.26-10.27-26.46-19.55-41.87-29.42Z"/>
    <path class="cls-1" d="M1467.28,1084.83c2.91,1.99,7.48,4.49,9.58,5.81-2.67-1.72-5.86-3.77-9.58-5.81Z"/>
    <path class="cls-6" d="M1476.86,1090.64c.16.11.33.21.49.32-.14-.09-.31-.2-.49-.32Z"/>
    <path class="cls-5" d="M1229.67,1062.59c-.68-.09-1.39-.19-2.15-.28.72.1,1.43.19,2.15.28Z"/>
  </g>
  <g>
    <path class="cls-11" d="M898.7,631.3c-1.06,1.85-2.97,4.5-5.75,7.93-2.77,3.44-5.15,6.54-7.13,9.31-1.98,2.77-3.76,5.75-5.35,8.92l-113.75,226.71c13.21,0,24.83-1.78,34.88-5.35,10.04-3.57,17.84-7.86,23.38-12.88,5.55-5.02,10.5-10.04,14.86-15.06,4.36-5.02,8.98-9.18,13.87-12.48,4.89-3.3,10.24-4.95,16.05-4.95,4.76.27,9.12,2.25,13.08,5.95,3.96,3.7,6.8,8.26,8.52,13.67,1.72,5.42,2.44,10.97,2.18,16.65-.27,5.68-2.64,11.04-7.13,16.05-4.5,5.02-10.7,8.59-18.63,10.7-3.96,1.06-8.46,1.58-13.48,1.58h-149.02c-4.23.27-7.27-.26-9.12-1.58-2.38-1.58-2.11-4.22.79-7.93,1.05-1.58,3.03-4.22,5.95-7.93,2.9-3.7,5.35-6.94,7.33-9.71s3.77-5.88,5.35-9.31l110.97-225.52c-12.42.27-23.32,2.25-32.7,5.95-9.38,3.7-16.71,8-22,12.88-5.29,4.89-10.11,9.78-14.47,14.66-4.36,4.89-8.92,8.99-13.67,12.29-4.76,3.31-10.04,4.82-15.85,4.56-4.76-.26-9.12-2.18-13.08-5.75-3.96-3.57-6.81-8.12-8.52-13.67-1.72-5.55-2.45-11.16-2.18-16.84.26-5.68,2.64-11.03,7.13-16.05,4.49-5.02,10.7-8.58,18.63-10.7,3.96-1.05,8.45-1.58,13.48-1.58h147.44c3.96,0,6.87.53,8.72,1.58,2.38,1.58,2.11,4.23-.79,7.93Z"/>
    <path class="cls-11" d="M1044.95,841.36c3.7-2.9,8.39-4.56,14.07-4.95,5.68-.4,11.03.4,16.05,2.38,5.02,1.98,9.25,4.69,12.68,8.12,3.43,3.44,4.89,7.8,4.36,13.08-.53,5.29-3.31,10.84-8.32,16.65-8.99,9.51-20.61,16.25-34.88,20.21-14.27,3.96-28.28,5.94-42.01,5.94-15.33-.27-29.07-2.18-41.22-5.75-12.16-3.57-21.87-8.19-29.13-13.87-7.27-5.68-13.54-11.95-18.83-18.83-5.29-6.87-9.05-13.67-11.3-20.41-2.25-6.74-4.03-12.94-5.35-18.63-1.33-5.68-1.98-10.24-1.98-13.67v-5.15c0-1.32.06-3.1.2-5.35.13-2.24.79-6.6,1.98-13.08,1.19-6.47,2.9-12.61,5.15-18.43,2.24-5.81,5.88-12.42,10.9-19.82,5.02-7.39,10.96-13.74,17.83-19.02,6.87-5.28,16.05-9.91,27.55-13.87,11.49-3.96,24.24-6.21,38.25-6.74,6.08-.26,12.94.27,20.61,1.58,7.66,1.33,15.79,3.57,24.38,6.74,8.58,3.17,15.72,8.26,21.4,15.26,5.68,7,8.52,15.26,8.52,24.77s-1.85,17.64-5.55,25.17c-3.7,7.53-8.86,13.87-15.46,19.02-6.61,5.15-13.54,9.58-20.81,13.28-7.27,3.7-15.4,6.68-24.37,8.92-8.99,2.25-16.78,3.96-23.38,5.15-6.61,1.19-13.35,2.05-20.21,2.58,6.6,33.56,19.55,52.06,38.84,55.49,8.72,1.58,15.85.53,21.4-3.17,5.02-3.17,7.66-6.47,7.93-9.91.53-2.38.46-5.88-.2-10.5-.66-4.62-.33-8.72.99-12.29,1.32-3.57,4.62-7.2,9.91-10.9ZM962.9,806.48c0,2.12.13,5.02.4,8.72,8.45-3.96,15.59-8.12,21.4-12.48,5.81-4.36,10.5-9.05,14.07-14.07,3.57-5.02,6.27-9.38,8.12-13.08,1.85-3.7,3.83-8.19,5.94-13.48,1.85-5.02,2.77-10.43,2.77-16.25.26-5.55-.99-10.5-3.76-14.86s-6.94-6.8-12.48-7.33c-7.93-.26-14.6,2.32-20.02,7.73-5.42,5.42-9.18,12.22-11.3,20.41-2.12,8.19-3.64,16.39-4.56,24.57-.93,8.19-1.26,15.33-.99,21.4l.4,8.72Z"/>
    <path class="cls-11" d="M1245.49,841.36c3.7-2.9,8.39-4.56,14.07-4.95,5.68-.4,11.03.4,16.05,2.38,5.02,1.98,9.25,4.69,12.68,8.12,3.43,3.44,4.89,7.8,4.36,13.08-.53,5.29-3.31,10.84-8.32,16.65-8.99,9.51-20.61,16.25-34.88,20.21-14.27,3.96-28.28,5.94-42.01,5.94-15.33-.27-29.07-2.18-41.22-5.75-12.16-3.57-21.87-8.19-29.13-13.87-7.27-5.68-13.54-11.95-18.83-18.83-5.29-6.87-9.05-13.67-11.3-20.41-2.25-6.74-4.03-12.94-5.35-18.63-1.33-5.68-1.98-10.24-1.98-13.67v-5.15c0-1.32.06-3.1.2-5.35.13-2.24.79-6.6,1.98-13.08,1.19-6.47,2.9-12.61,5.15-18.43,2.24-5.81,5.88-12.42,10.9-19.82,5.02-7.39,10.96-13.74,17.83-19.02,6.87-5.28,16.05-9.91,27.55-13.87,11.49-3.96,24.24-6.21,38.25-6.74,6.08-.26,12.94.27,20.61,1.58,7.66,1.33,15.79,3.57,24.38,6.74,8.58,3.17,15.72,8.26,21.4,15.26,5.68,7,8.52,15.26,8.52,24.77s-1.85,17.64-5.55,25.17c-3.7,7.53-8.86,13.87-15.46,19.02-6.61,5.15-13.54,9.58-20.81,13.28-7.27,3.7-15.4,6.68-24.37,8.92-8.99,2.25-16.78,3.96-23.38,5.15-6.61,1.19-13.35,2.05-20.21,2.58,6.6,33.56,19.55,52.06,38.84,55.49,8.72,1.58,15.85.53,21.4-3.17,5.02-3.17,7.66-6.47,7.93-9.91.53-2.38.46-5.88-.2-10.5-.66-4.62-.33-8.72.99-12.29,1.32-3.57,4.62-7.2,9.91-10.9ZM1163.45,806.48c0,2.12.13,5.02.4,8.72,8.45-3.96,15.59-8.12,21.4-12.48,5.81-4.36,10.5-9.05,14.07-14.07,3.57-5.02,6.27-9.38,8.12-13.08,1.85-3.7,3.83-8.19,5.94-13.48,1.85-5.02,2.77-10.43,2.77-16.25.26-5.55-.99-10.5-3.77-14.86s-6.94-6.8-12.48-7.33c-7.93-.26-14.6,2.32-20.02,7.73-5.42,5.42-9.18,12.22-11.29,20.41-2.12,8.19-3.64,16.39-4.56,24.57-.93,8.19-1.26,15.33-.99,21.4l.4,8.72Z"/>
    <path class="cls-11" d="M1493.6,865.14c.53,8.19,2.51,15.59,5.95,22.19,1.85,4.23,1.91,6.94.2,8.12-1.72,1.19-4.69,1.78-8.92,1.78l-47.56-.4c-3.7,0-6.87-1.32-9.51-3.96-2.64-2.64-3.96-5.81-3.96-9.51-8.19,13.48-20.21,20.21-36.07,20.21-9.78,0-18.76-1.06-26.95-3.17-8.19-2.11-15.13-5.02-20.81-8.72-5.68-3.7-10.77-7.99-15.26-12.88-4.5-4.89-8.06-9.97-10.7-15.26-2.64-5.28-4.89-10.63-6.74-16.05-1.85-5.41-3.17-10.5-3.96-15.26-.79-4.76-1.39-8.98-1.78-12.68-.4-3.7-.59-6.74-.59-9.12v-50.33c0-9.77-4.1-17.04-12.29-21.8h-.4c-2.64-1.58-4.43-3.3-5.35-5.15-.93-1.85-.33-3.76,1.78-5.75,2.11-1.98,5.95-3.23,11.49-3.76,6.87-.79,14.4-1.72,22.59-2.77,8.72-.79,16.91-1.98,24.57-3.57,15.06-2.64,24.44-2.77,28.14-.4,1.59,1.33,1.45,4.1-.4,8.32-4.23,8.46-6.34,17.83-6.34,28.14l-1.59,53.9v4.56c0,1.98.13,5.82.4,11.49.26,5.68.66,11.04,1.19,16.05.53,5.02,1.45,10.7,2.77,17.04,1.32,6.34,2.9,11.76,4.76,16.25,1.85,4.5,4.29,8.26,7.33,11.3,3.03,3.04,6.4,4.56,10.11,4.56,10.57,0,19.82-9.51,27.74-28.54,2.11-4.76,3.63-10.04,4.56-15.85.92-5.81,1.45-10.5,1.59-14.07.13-3.57.2-9.05.2-16.45v-59.85c0-10.3-2.12-19.68-6.34-28.14-1.85-4.22-1.92-6.94-.2-8.12,1.71-1.19,4.69-1.78,8.92-1.78h58.66c4.22,0,7.2.59,8.92,1.78,1.71,1.19,1.65,3.9-.2,8.12-3.44,6.61-5.42,14.01-5.95,22.2v117.32Z"/>
    <path class="cls-11" d="M1816.81,717.3c1.45,1.06.33,3.7-3.37,7.93-10.04,11.36-16.78,21.93-20.21,31.71l-35.67,90.76c-1.06,3.96-1.58,7.53-1.58,10.7-.53,9.51,1.19,18.23,5.15,26.16.26.53.66,1.33,1.19,2.38,2.38,4.23,2.51,6.87.4,7.93-2.12,1.33-7.13,1.85-15.06,1.58h-56.68c-7.67.53-12.82,0-15.46-1.58-1.85-1.05-1.59-3.7.79-7.93.53-1.05.92-1.85,1.19-2.38,1.05-2.11,1.98-4.36,2.77-6.74,3.7-11.89,2.9-23.78-2.38-35.67l-16.25-38.05-17.04,43.6c-1.06,3.96-1.72,7.53-1.98,10.7-.53,9.51,1.32,18.23,5.55,26.16.26.53.66,1.33,1.19,2.38,2.38,4.23,2.51,6.87.4,7.93-2.64,1.58-7.8,2.12-15.46,1.58h-56.28c-8.99-.26-14.14-.79-15.46-1.58-2.12-1.05-1.98-3.7.4-7.93.53-1.05.92-1.85,1.19-2.38,1.05-2.11,1.98-4.36,2.77-6.74,3.96-11.89,3.3-23.78-1.98-35.67l-36.07-83.23c-.27-.26-.79-1.25-1.59-2.97-.79-1.71-1.46-3.03-1.98-3.96-.53-.92-1.26-2.24-2.18-3.96-.93-1.71-1.85-3.1-2.77-4.16-.93-1.05-1.98-2.18-3.17-3.37-1.19-1.19-2.32-2.18-3.37-2.97h-.4c-3.17-1.84-4.95-3.96-5.35-6.34-.4-2.38,1.39-4.62,5.35-6.74,5.28-1.32,13.48-2.58,24.57-3.76,11.1-1.19,19.28-2.58,24.57-4.16h.79c7.13-1.32,13.08-1.45,17.84-.4,3.7.53,5.41,2.64,5.15,6.34-.27,1.59-.93,4.03-1.98,7.33-1.06,3.31-1.72,5.75-1.98,7.33-1.59,7.93-.66,15.59,2.77,22.99l42.41,94.72,26.55-68.17-12.29-27.74c0-.26-.4-1.25-1.19-2.97-.79-1.71-1.46-3.03-1.98-3.96-.53-.92-1.33-2.24-2.38-3.96-1.06-1.71-1.98-3.1-2.77-4.16-.79-1.05-1.78-2.18-2.97-3.37-1.19-1.19-2.45-2.18-3.77-2.97h-.4c-3.17-1.84-4.95-3.96-5.35-6.34-.4-2.38,1.39-4.62,5.35-6.74,5.55-1.32,13.67-2.58,24.38-3.76,10.7-1.19,18.69-2.44,23.98-3.77.79-.26,1.58-.4,2.38-.4,5.81-1.05,10.96-1.32,15.46-.79,2.11.27,3.83,1.33,5.15,3.17,1.32,1.85,1.72,3.83,1.19,5.94-.27,1.06-.86,3.04-1.78,5.95-.93,2.91-1.39,5.02-1.39,6.34-1.85,7.93-1.06,15.59,2.38,22.99l42.8,94.72,38.84-99.88c3.17-10.3,4.09-20.21,2.77-29.73-.53-4.22.26-6.87,2.38-7.93,1.32-.79,3.37-1.32,6.14-1.58,2.77-.26,6.08-.33,9.91-.2,3.83.14,6.14.2,6.94.2,4.49,0,7.46.53,8.92,1.58Z"/>
    <path class="cls-11" d="M1999.72,851.27v2.77c0,1.33-.53,3.7-1.58,7.13-1.06,3.44-2.64,6.68-4.76,9.71-2.12,3.04-5.69,6.48-10.7,10.3-5.02,3.83-10.97,7.13-17.83,9.91-6.87,2.77-16.12,5.15-27.74,7.13-11.63,1.98-24.71,2.97-39.24,2.97-46.51,0-75.3-8.58-86.4-25.76-4.76-7.13-7.27-13.67-7.53-19.62-.27-5.94,1.25-10.63,4.56-14.07,3.3-3.43,7.39-6.08,12.29-7.93,4.89-1.85,10.17-2.51,15.85-1.98,5.68.53,10.76,2.12,15.26,4.76,5.02,2.91,8.58,6.48,10.7,10.7,2.11,4.23,3.57,9.25,4.36,15.06.79,5.81,1.85,10.17,3.17,13.08.79,1.58,1.98,3.24,3.57,4.95,1.59,1.72,4.49,3.5,8.72,5.35,4.22,1.85,9.25,2.77,15.06,2.77,17.97,0,30.38-4.62,37.26-13.87,2.64-3.43,3.7-7.39,3.17-11.89-.53-4.49-2.51-8.19-5.95-11.1-5.55-4.49-18.23-10.7-38.05-18.63-28.8-12.15-48.49-22.99-59.05-32.5-10.57-9.51-16.39-20.47-17.44-32.9-.27-3.17.2-6.87,1.39-11.1,1.19-4.22,3.77-9.05,7.73-14.47,3.96-5.41,9.12-10.37,15.46-14.86,6.34-4.49,15.26-8.32,26.75-11.49s24.5-4.76,39.04-4.76c38.05,0,63.02,8.59,74.91,25.76,4.22,6.08,6.34,11.76,6.34,17.04s-1.59,9.45-4.76,12.49c-3.17,3.04-7.2,5.68-12.09,7.93-4.89,2.25-10.04,3.31-15.46,3.17-5.42-.13-10.37-.85-14.86-2.18-3.17-1.05-5.68-2.51-7.53-4.36-1.85-1.85-2.84-4.22-2.97-7.13-.14-2.9-.14-5.02,0-6.34.13-1.32.46-3.57.99-6.74,1.32-5.55.06-10.83-3.77-15.85-3.83-5.02-8.66-8.19-14.47-9.51-4.5-.79-8.79-.85-12.88-.2-4.1.66-8.26,1.65-12.48,2.97-4.23,1.33-7.47,3.37-9.71,6.14-2.25,2.77-3.63,5.68-4.16,8.72-.53,3.04.79,6.54,3.96,10.5,3.17,3.96,8.06,7.93,14.66,11.89,8.19,4.76,19.68,9.91,34.48,15.46,47.82,17.71,71.74,41.22,71.74,70.55Z"/>
    <path class="cls-11" d="M2135.66,644.38c-3.17-1.58-4.95-3.63-5.35-6.14-.4-2.51,1.39-4.69,5.35-6.54,5.28-1.32,13.08-2.58,23.38-3.77,10.3-1.19,17.96-2.31,22.99-3.37,3.43-.79,6.08-1.32,7.93-1.58,5.28-.53,9.77-.53,13.47,0,2.9.53,4.49,2.38,4.76,5.55,0,2.38-.99,7.33-2.97,14.86s-2.32,13.28-.99,17.24l-.4-.4,46.37,195.79,44.79-173.99c4.22-15.32,3.7-30.78-1.59-46.37-.53-1.32-.93-2.51-1.19-3.57-.79-4.22-.14-7,1.98-8.32.53-.26,3.37-.53,8.52-.79,5.15-.26,10.11-.4,14.86-.4l7.13-.4c5.02,0,7.93.53,8.72,1.59,1.58,2.64.66,6.48-2.77,11.49-9.78,12.95-15.46,22.46-17.04,28.54l-46.77,185.49c-1.06,3.96-1.58,7.53-1.58,10.7-.53,9.51,1.19,18.23,5.15,26.16,3.17,5.81,3.7,9.25,1.58,10.3-2.38,1.58-7.4,2.12-15.06,1.58h-56.68c-7.67.53-12.82,0-15.46-1.58-2.12-1.05-1.46-4.49,1.98-10.3,5.28-10.57,6.6-22.06,3.96-34.48l-42.41-185.09c-2.38-11.1-6.48-18.36-12.29-21.8l-.4-.4Z"/>
    <path class="cls-11" d="M2459.07,841.36c3.7-2.9,8.39-4.56,14.07-4.95,5.68-.4,11.03.4,16.05,2.38,5.02,1.98,9.25,4.69,12.68,8.12,3.43,3.44,4.89,7.8,4.36,13.08-.53,5.29-3.31,10.84-8.32,16.65-8.99,9.51-20.61,16.25-34.88,20.21-14.27,3.96-28.28,5.94-42.01,5.94-15.33-.27-29.07-2.18-41.22-5.75-12.16-3.57-21.87-8.19-29.13-13.87-7.27-5.68-13.54-11.95-18.83-18.83-5.29-6.87-9.05-13.67-11.3-20.41-2.25-6.74-4.03-12.94-5.35-18.63-1.33-5.68-1.98-10.24-1.98-13.67v-5.15c0-1.32.06-3.1.2-5.35.13-2.24.79-6.6,1.98-13.08,1.19-6.47,2.9-12.61,5.15-18.43,2.24-5.81,5.88-12.42,10.9-19.82,5.02-7.39,10.96-13.74,17.83-19.02,6.87-5.28,16.05-9.91,27.55-13.87,11.49-3.96,24.24-6.21,38.25-6.74,6.08-.26,12.94.27,20.61,1.58,7.66,1.33,15.79,3.57,24.38,6.74,8.58,3.17,15.72,8.26,21.4,15.26,5.68,7,8.52,15.26,8.52,24.77s-1.85,17.64-5.55,25.17c-3.7,7.53-8.86,13.87-15.46,19.02-6.61,5.15-13.54,9.58-20.81,13.28-7.27,3.7-15.39,6.68-24.38,8.92-8.99,2.25-16.78,3.96-23.38,5.15-6.61,1.19-13.35,2.05-20.21,2.58,6.6,33.56,19.55,52.06,38.84,55.49,8.72,1.58,15.85.53,21.4-3.17,5.02-3.17,7.66-6.47,7.93-9.91.53-2.38.46-5.88-.2-10.5-.66-4.62-.33-8.72.99-12.29,1.32-3.57,4.62-7.2,9.91-10.9ZM2377.02,806.48c0,2.12.13,5.02.4,8.72,8.45-3.96,15.59-8.12,21.4-12.48,5.81-4.36,10.5-9.05,14.07-14.07,3.57-5.02,6.27-9.38,8.12-13.08,1.85-3.7,3.83-8.19,5.95-13.48,1.84-5.02,2.77-10.43,2.77-16.25.26-5.55-.99-10.5-3.77-14.86-2.77-4.36-6.94-6.8-12.48-7.33-7.93-.26-14.6,2.32-20.01,7.73s-9.18,12.22-11.3,20.41c-2.12,8.19-3.63,16.39-4.56,24.57-.93,8.19-1.26,15.33-.99,21.4l.4,8.72Z"/>
    <path class="cls-11" d="M2665.96,709.77c16.38,0,27.8,4.82,34.28,14.47,6.47,9.65,7.99,19.56,4.56,29.72-3.44,10.17-9.38,16.19-17.83,18.03-5.81,1.06-11.23.59-16.25-1.39-5.02-1.98-9.31-4.69-12.88-8.12-3.57-3.43-7.13-6.87-10.7-10.3-3.57-3.43-7.67-6.01-12.29-7.73-4.62-1.72-9.58-1.78-14.86-.2-9.25,3.44-16.65,9.85-22.2,19.22-5.55,9.38-8.46,19.49-8.72,30.32v71.34c.79,8.19,2.77,15.59,5.95,22.19,2.11,4.23,2.31,6.94.59,8.12-1.72,1.19-4.82,1.78-9.31,1.78h-58.26c-4.5,0-7.6-.59-9.31-1.78-1.72-1.19-1.52-3.89.59-8.12,3.96-8.45,5.95-17.83,5.95-28.14v-98.69c0-9.77-4.1-17.04-12.29-21.8h-.4c-2.64-1.58-4.43-3.3-5.35-5.15-.93-1.85-.33-3.77,1.78-5.75,2.11-1.98,5.95-3.23,11.49-3.76,28.54-3.7,44.25-5.81,47.16-6.34,15.06-2.64,24.44-2.77,28.14-.4,1.59,1.33,1.45,4.1-.4,8.32-3.7,7.93-5.82,16.65-6.34,26.16,17.7-28,43.33-42.01,76.89-42.01Z"/>
    <path class="cls-11" d="M2785.25,864.74c.79,8.19,2.78,15.59,5.95,22.2,2.11,4.23,2.31,6.94.59,8.12-1.72,1.19-4.82,1.78-9.31,1.78h-58.26c-4.5,0-7.6-.59-9.31-1.78-1.72-1.19-1.52-3.89.59-8.12,3.96-8.45,5.95-17.84,5.95-28.14v-193.81c0-9.77-4.1-17.04-12.29-21.8h-.4c-2.64-1.58-4.42-3.3-5.35-5.15-.92-1.84-.33-3.76,1.78-5.75,2.11-1.98,5.95-3.23,11.49-3.77,28.54-3.7,44.25-5.81,47.17-6.34,15.06-2.64,24.44-2.77,28.14-.4,1.59,1.33,1.45,4.1-.4,8.32-4.23,8.46-6.34,17.84-6.34,28.14v206.49Z"/>
    <path class="cls-11" d="M2987.77,886.94c1.85,4.23,1.98,6.87.4,7.93-.79.53-2.18.93-4.16,1.19-1.98.27-4.3.4-6.94.4h-26.55c-6.61,0-12.62-1.78-18.03-5.35-5.42-3.57-9.31-8.25-11.69-14.07-19.56,16.12-43.34,22.59-71.34,19.42-9.78-1.05-18.3-4.49-25.56-10.3-7.27-5.81-12.42-12.81-15.46-21.01-3.04-8.19-3.37-17.44-.99-27.74s7.93-19.95,16.65-28.93c7.93-8.45,16.84-14.86,26.75-19.22,9.91-4.36,20.87-7.86,32.9-10.5,12.02-2.64,20.67-5.02,25.96-7.13,6.87-3.17,11.03-8.72,12.48-16.65,1.45-7.93-.14-15.12-4.76-21.6-4.63-6.47-10.77-9.31-18.43-8.52-5.55.53-11.04,2.77-16.45,6.74-5.42,3.96-10.3,8.46-14.66,13.48-4.36,5.02-8.79,9.98-13.28,14.86-4.5,4.89-9.51,8.66-15.06,11.3-5.55,2.64-11.23,3.44-17.04,2.38-8.72-1.85-13.87-7.26-15.46-16.25-2.12-11.89,3.03-22.46,15.46-31.71,9.77-7.39,23.12-12.15,40.03-14.27,6.08-.79,15.98-1.19,29.72-1.19,26.69,0,48.29,9.45,64.8,28.34,16.51,18.89,24.77,42.35,24.77,70.35l-.4,49.54c0,10.3,2.11,19.82,6.34,28.54ZM2918.02,861.57c1.85-3.43,2.78-11.62,2.78-24.57s-.53-25.1-1.59-36.46l-1.19-16.65c-1.32.27-3.11.79-5.35,1.58-2.25.79-6.28,2.58-12.09,5.35-5.82,2.77-11.1,5.82-15.85,9.12-4.76,3.31-9.38,7.8-13.87,13.48-4.5,5.68-7.4,11.69-8.72,18.03-1.59,7.4-1.13,14.21,1.39,20.41,2.51,6.21,6.21,10.9,11.1,14.07,4.89,3.17,10.11,5.42,15.66,6.74,5.55,1.33,10.96.99,16.25-.99,5.28-1.98,9.12-5.35,11.49-10.11Z"/>
    <path class="cls-11" d="M3207.34,886.94c2.11,4.23,2.24,7,.4,8.32-1.33.79-3.57,1.33-6.74,1.59h-63.41c-3.17-.26-5.42-.79-6.74-1.59-1.85-1.32-1.72-4.09.4-8.32,3.96-8.19,6.08-17.3,6.34-27.35l-.4-52.71c.26-1.05.4-2.58.4-4.56s-.07-5.81-.2-11.49c-.14-5.68-.46-11.03-.99-16.05-.53-5.02-1.33-10.7-2.38-17.04-1.06-6.34-2.45-11.75-4.16-16.25-1.72-4.49-4.1-8.25-7.13-11.3-3.04-3.03-6.41-4.56-10.11-4.56-9.25,0-17.44,8.46-24.57,25.37-6.34,14.8-9.51,31.31-9.51,49.54v58.26c0,3.7.26,6.87.79,9.51.79,6.61,2.64,12.82,5.55,18.63,1.85,4.23,1.98,7,.4,8.32-1.59,1.06-4.36,1.59-8.32,1.59h-60.64c-3.7,0-6.34-.53-7.93-1.59-1.85-1.32-1.72-4.09.4-8.32,3.96-8.45,5.94-17.84,5.94-28.14v-98.29c0-9.77-4.1-17.04-12.29-21.8h-.4c-2.64-1.58-4.43-3.3-5.35-5.15-.93-1.85-.33-3.77,1.78-5.75,2.11-1.98,5.95-3.23,11.49-3.76,11.1-1.32,30.25-3.83,57.47-7.53,3.17-.26,5.81.59,7.93,2.58,2.11,1.98,3.17,4.43,3.17,7.33v9.12c4.76-8.19,10.44-14.33,17.04-18.43,6.6-4.09,13.08-6.4,19.42-6.94,12.15-.79,23.19.4,33.09,3.57,9.91,3.17,17.77,7.6,23.58,13.28,5.81,5.69,10.83,11.96,15.06,18.83,4.22,6.87,7.26,13.87,9.12,21.01,1.84,7.13,3.23,13.67,4.16,19.62.92,5.95,1.25,10.9.99,14.86v5.55l.4,51.52c0,10.57,1.98,20.08,5.94,28.54Z"/>
    <path class="cls-11" d="M3418.19,678.86c16.11.27,27.48,5.22,34.09,14.86,6.6,9.65,8.19,19.56,4.76,29.73-3.44,10.17-9.38,16.05-17.84,17.64-5.81,1.06-11.23.59-16.25-1.39-5.02-1.98-9.38-4.69-13.08-8.12-3.7-3.43-7.27-6.87-10.7-10.3-3.44-3.43-7.47-6.01-12.09-7.73-4.63-1.72-9.58-1.78-14.86-.2-3.44,1.06-7,3.04-10.7,5.94,15.85,7.13,28.67,17.24,38.45,30.32,9.77,13.08,14.79,27.54,15.06,43.4.26,14.8-3.7,28.54-11.89,41.22-8.19,12.68-19.29,22.73-33.29,30.12-6.08,3.44-17.24,8-33.49,13.67-16.25,5.68-28.73,11.56-37.45,17.64-9.78,6.6-16.98,14.67-21.6,24.18-4.63,9.51-6.74,18.36-6.34,26.55.4,8.19,2.44,15.19,6.14,21.01,3.43,5.28,8.78,9.84,16.05,13.67,7.26,3.83,14.47,5.75,21.6,5.75,10.56,0,19.02-4.69,25.37-14.07,6.34-9.38,9.12-20.55,8.32-33.49-.27-3.96-.93-9.25-1.98-15.85-1.06-6.61-1.78-11.76-2.18-15.46-.4-3.7.26-7.93,1.98-12.68,1.72-4.76,4.69-9.12,8.92-13.08,4.22-3.96,9.51-6.21,15.85-6.74,6.34-.53,12.42.73,18.23,3.76,5.81,3.04,11.1,7.4,15.85,13.08,4.76,5.69,7.86,12.62,9.31,20.81,1.45,8.19.99,17.44-1.39,27.74-5.29,18.23-15.39,32.23-30.32,42.01-14.93,9.77-35.61,15.72-62.03,17.83-19.82,1.59-37.92.13-54.3-4.36-16.38-4.5-29.53-12.55-39.44-24.18-9.91-11.63-13.67-25.9-11.29-42.8,2.11-14.53,9.71-25.37,22.79-32.5,13.08-7.13,34.81-13.74,65.2-19.82-24.05-2.9-44.19-12.22-60.44-27.94-16.25-15.72-24.38-34.02-24.38-54.89,0-23.25,9.57-43.06,28.73-59.45,19.15-16.38,42.34-24.57,69.56-24.57,10.56,0,20.87,1.46,30.91,4.36,10.04-10.04,21.2-18.49,33.49-25.37,12.29-6.87,24.5-10.3,36.66-10.3ZM3347.64,822.73c1.85-10.04,2.9-19.55,3.17-28.54,0-19.28-3.31-35.8-9.91-49.54-6.61-13.74-14.6-20.61-23.98-20.61s-17.38,6.87-23.98,20.61c-6.61,13.74-9.91,30.26-9.91,49.54s3.3,35.74,9.91,49.34c6.6,13.61,14.67,20.41,24.18,20.41,6.6,0,12.68-3.76,18.23-11.29,5.55-7.53,9.64-17.5,12.29-29.92Z"/>
    <path class="cls-11" d="M3592.18,841.36c3.7-2.9,8.39-4.56,14.07-4.95,5.68-.4,11.03.4,16.05,2.38,5.02,1.98,9.25,4.69,12.68,8.12,3.43,3.44,4.89,7.8,4.36,13.08-.53,5.29-3.31,10.84-8.32,16.65-8.99,9.51-20.61,16.25-34.88,20.21-14.27,3.96-28.28,5.94-42.01,5.94-15.33-.27-29.07-2.18-41.22-5.75-12.16-3.57-21.87-8.19-29.13-13.87-7.27-5.68-13.54-11.95-18.83-18.83-5.29-6.87-9.05-13.67-11.3-20.41-2.25-6.74-4.03-12.94-5.35-18.63-1.33-5.68-1.98-10.24-1.98-13.67v-5.15c0-1.32.06-3.1.2-5.35.13-2.24.79-6.6,1.98-13.08,1.19-6.47,2.9-12.61,5.15-18.43,2.24-5.81,5.88-12.42,10.9-19.82,5.02-7.39,10.96-13.74,17.83-19.02,6.87-5.28,16.05-9.91,27.55-13.87,11.49-3.96,24.24-6.21,38.25-6.74,6.07-.26,12.94.27,20.61,1.58,7.66,1.33,15.79,3.57,24.37,6.74,8.58,3.17,15.72,8.26,21.4,15.26,5.68,7,8.52,15.26,8.52,24.77s-1.85,17.64-5.55,25.17c-3.7,7.53-8.86,13.87-15.46,19.02-6.61,5.15-13.54,9.58-20.81,13.28-7.27,3.7-15.4,6.68-24.38,8.92-8.99,2.25-16.78,3.96-23.38,5.15-6.61,1.19-13.34,2.05-20.21,2.58,6.6,33.56,19.55,52.06,38.84,55.49,8.72,1.58,15.85.53,21.4-3.17,5.02-3.17,7.66-6.47,7.93-9.91.53-2.38.46-5.88-.2-10.5-.66-4.62-.33-8.72.99-12.29,1.32-3.57,4.62-7.2,9.91-10.9ZM3510.14,806.48c0,2.12.13,5.02.4,8.72,8.45-3.96,15.59-8.12,21.4-12.48,5.81-4.36,10.5-9.05,14.07-14.07,3.57-5.02,6.27-9.38,8.12-13.08,1.85-3.7,3.83-8.19,5.95-13.48,1.84-5.02,2.77-10.43,2.77-16.25.26-5.55-.99-10.5-3.77-14.86-2.77-4.36-6.94-6.8-12.48-7.33-7.93-.26-14.6,2.32-20.02,7.73-5.42,5.42-9.18,12.22-11.29,20.41-2.12,8.19-3.63,16.39-4.56,24.57-.93,8.19-1.26,15.33-.99,21.4l.4,8.72Z"/>
    <path class="cls-11" d="M3850.99,886.94c2.11,4.23,2.24,7,.4,8.32-1.33.79-3.57,1.33-6.74,1.59h-63.41c-3.17-.26-5.42-.79-6.74-1.59-1.85-1.32-1.72-4.09.4-8.32,3.96-8.19,6.08-17.3,6.34-27.35l-.4-52.71c.26-1.05.4-2.58.4-4.56s-.07-5.81-.2-11.49c-.14-5.68-.46-11.03-.99-16.05-.53-5.02-1.33-10.7-2.38-17.04-1.06-6.34-2.45-11.75-4.16-16.25-1.72-4.49-4.1-8.25-7.13-11.3-3.04-3.03-6.41-4.56-10.11-4.56-9.25,0-17.44,8.46-24.57,25.37-6.34,14.8-9.51,31.31-9.51,49.54v58.26c0,3.7.26,6.87.79,9.51.79,6.61,2.64,12.82,5.55,18.63,1.85,4.23,1.98,7,.4,8.32-1.59,1.06-4.36,1.59-8.32,1.59h-60.64c-3.7,0-6.34-.53-7.93-1.59-1.85-1.32-1.72-4.09.4-8.32,3.96-8.45,5.94-17.84,5.94-28.14v-98.29c0-9.77-4.1-17.04-12.29-21.8h-.4c-2.64-1.58-4.43-3.3-5.35-5.15-.93-1.85-.33-3.77,1.78-5.75,2.11-1.98,5.95-3.23,11.49-3.76,11.1-1.32,30.25-3.83,57.47-7.53,3.17-.26,5.81.59,7.93,2.58,2.11,1.98,3.17,4.43,3.17,7.33v9.12c4.76-8.19,10.44-14.33,17.04-18.43,6.6-4.09,13.08-6.4,19.42-6.94,12.15-.79,23.19.4,33.09,3.57,9.91,3.17,17.77,7.6,23.58,13.28,5.81,5.69,10.83,11.96,15.06,18.83,4.22,6.87,7.26,13.87,9.12,21.01,1.84,7.13,3.23,13.67,4.16,19.62.92,5.95,1.25,10.9.99,14.86v5.55l.4,51.52c0,10.57,1.98,20.08,5.94,28.54Z"/>
  </g>
  <g>
    <path class="cls-4" d="M917.49,476.06c0-1.56-.13-2.89-.39-4.01-.26-1.11-.71-2.02-1.36-2.73-.65-.7-1.55-1.22-2.7-1.56-1.15-.33-2.62-.5-4.4-.5-2.45,0-5.58.28-9.4.83l-.67-4.95c3.45-.63,7.22-1.28,11.32-1.95,4.1-.67,8.31-1.28,12.63-1.84,4.32-.56,8.66-1.01,13.02-1.36,4.36-.35,8.54-.53,12.55-.53,5.38,0,10.37.47,14.97,1.42,4.6.95,8.59,2.52,11.96,4.73,3.38,2.21,6.03,5.11,7.96,8.71,1.93,3.6,2.89,8.07,2.89,13.41,0,4.93-.81,9.45-2.42,13.55-1.61,4.1-3.9,7.76-6.84,10.99-2.95,3.23-6.52,5.99-10.71,8.29-4.19,2.3-8.87,4.12-14.02,5.45,3.86,6.6,7.36,12.41,10.52,17.42,3.15,5.01,6.05,9.4,8.68,13.16,2.63,3.77,5.04,6.99,7.23,9.68,2.19,2.69,4.25,5.02,6.18,6.98,1.52,1.6,2.95,2.94,4.29,4.03,1.34,1.09,2.62,1.98,3.87,2.64,1.24.67,2.49,1.15,3.76,1.45,1.26.3,2.58.45,3.95.45,1.48,0,2.89-.15,4.23-.45,1.34-.3,2.8-.74,4.4-1.34l1.56,4.56c-4.71,2.15-8.89,3.76-12.52,4.81-3.64,1.06-6.68,1.59-9.13,1.59-1.22,0-2.39-.14-3.51-.42s-2.21-.7-3.28-1.25c-1.08-.56-2.15-1.27-3.23-2.14-1.08-.87-2.23-1.9-3.45-3.09-2-1.89-4.32-4.46-6.96-7.71-2.63-3.25-5.61-7.31-8.93-12.19-3.32-4.88-7-10.66-11.05-17.34-4.04-6.68-8.5-14.39-13.36-23.15l.11-.72c6.57-.26,12.11-1.17,16.64-2.73,4.53-1.56,8.19-3.67,10.99-6.34,2.8-2.67,4.83-5.85,6.09-9.54,1.26-3.69,1.89-7.82,1.89-12.38,0-8.75-2.3-15.3-6.9-19.64-4.6-4.34-11.41-6.51-20.42-6.51-1.93,0-3.77.07-5.51.22-1.74.15-3.67.35-5.79.61-.07,2.86-.18,6.68-.31,11.46-.13,4.79-.28,10.29-.45,16.5-.17,6.21-.36,13.02-.58,20.42s-.45,15.14-.67,23.21-.46,16.36-.72,24.88c-.26,8.51-.52,17-.78,25.46l-13.19,1.67-1-.11c.45-10.65.85-20.74,1.22-30.27.37-9.53.68-18.82.92-27.85.24-9.03.44-17.98.58-26.82.15-8.85.22-17.91.22-27.18Z"/>
    <path class="cls-4" d="M1065.46,569.38c.22.11.51.27.86.47s.68.43.97.67c.3.24.56.5.78.78s.33.55.33.81c0,.15-.06.3-.17.45-2.08,2.89-4.31,5.41-6.71,7.54-2.39,2.13-4.88,3.92-7.46,5.34-2.58,1.43-5.2,2.49-7.87,3.17-2.67.69-5.31,1.03-7.9,1.03-4.45,0-8.53-.91-12.24-2.73-3.71-1.82-6.9-4.3-9.57-7.46-2.67-3.15-4.76-6.85-6.26-11.1-1.5-4.25-2.25-8.8-2.25-13.66,0-3.97.44-7.94,1.31-11.91.87-3.97,2.13-7.75,3.78-11.35,1.65-3.6,3.66-6.95,6.04-10.04,2.37-3.1,5.07-5.79,8.1-8.07,3.02-2.28,6.34-4.07,9.96-5.37s7.5-1.95,11.66-1.95c2.75,0,5.36.37,7.85,1.11,2.49.74,4.67,1.81,6.54,3.2,1.87,1.39,3.37,3.11,4.48,5.15,1.11,2.04,1.67,4.36,1.67,6.96,0,3.78-1.23,7.09-3.7,9.91s-5.87,5.21-10.21,7.18c-4.34,1.97-9.45,3.55-15.33,4.76-5.88,1.21-12.23,2.11-19.06,2.7v.95c0,4.75.6,9.09,1.81,13.02,1.21,3.93,2.87,7.3,4.98,10.1,2.12,2.8,4.6,4.98,7.46,6.54,2.86,1.56,5.94,2.34,9.24,2.34s6.76-.83,10.27-2.48c3.51-1.65,7.06-4.33,10.66-8.04ZM1055,524.7c0-1.71-.29-3.3-.86-4.79-.58-1.48-1.37-2.77-2.39-3.87-1.02-1.09-2.24-1.96-3.65-2.59-1.41-.63-2.93-.95-4.56-.95-2.41,0-4.6.43-6.57,1.28-1.97.85-3.73,2.01-5.29,3.48-1.56,1.47-2.93,3.17-4.12,5.12-1.19,1.95-2.2,4.02-3.03,6.21-.83,2.19-1.51,4.43-2.03,6.73-.52,2.3-.89,4.54-1.11,6.73,5.27-.37,9.99-1.01,14.16-1.92,4.17-.91,7.7-2.08,10.57-3.51,2.88-1.43,5.07-3.13,6.59-5.12,1.52-1.98,2.28-4.26,2.28-6.82Z"/>
    <path class="cls-4" d="M1087.44,566.55c.26,2.82,1.01,5.25,2.25,7.29,1.24,2.04,2.77,3.71,4.59,5.01,1.82,1.3,3.83,2.26,6.04,2.89,2.21.63,4.4.95,6.59.95,2.04,0,4.01-.28,5.9-.83,1.89-.56,3.56-1.35,5.01-2.39,1.45-1.04,2.61-2.32,3.48-3.84.87-1.52,1.31-3.23,1.31-5.12s-.46-3.69-1.39-5.18c-.93-1.48-2.17-2.84-3.73-4.06-1.56-1.22-3.37-2.36-5.43-3.39-2.06-1.04-4.2-2.1-6.43-3.17-1.97-.93-3.94-1.86-5.93-2.81-1.99-.95-3.91-1.98-5.76-3.09-1.86-1.11-3.59-2.32-5.2-3.62-1.61-1.3-3.02-2.74-4.23-4.31-1.21-1.58-2.15-3.34-2.84-5.29-.69-1.95-1.03-4.11-1.03-6.48,0-2.56.45-4.92,1.34-7.07.89-2.15,2.1-4.09,3.65-5.82,1.54-1.72,3.32-3.24,5.34-4.54,2.02-1.3,4.18-2.38,6.48-3.26,2.3-.87,4.67-1.52,7.1-1.95,2.43-.43,4.79-.64,7.1-.64,2.97,0,5.78.33,8.43.97,2.65.65,4.97,1.6,6.96,2.84,1.98,1.24,3.56,2.75,4.73,4.54,1.17,1.78,1.75,3.78,1.75,6.01,0,.85-.15,1.78-.45,2.78-.3,1-.8,1.94-1.5,2.81-.71.87-1.63,1.6-2.78,2.2-1.15.59-2.56.91-4.23.95-1.56,0-3.19-.24-4.9-.72l-.17-.56c.52-1.19.89-2.28,1.11-3.28.22-1,.33-1.93.33-2.78-.04-1.71-.47-3.14-1.31-4.31s-1.88-2.12-3.14-2.87c-1.26-.74-2.66-1.28-4.2-1.61-1.54-.33-3.05-.5-4.54-.5-2.63,0-4.99.35-7.07,1.06-2.08.71-3.83,1.64-5.26,2.81-1.43,1.17-2.52,2.5-3.28,3.98-.76,1.48-1.14,3.02-1.14,4.62,0,2.04.54,3.87,1.61,5.48,1.08,1.61,2.5,3.1,4.29,4.45,1.78,1.35,3.83,2.62,6.15,3.81,2.32,1.19,4.74,2.38,7.26,3.56,2.82,1.34,5.62,2.72,8.4,4.15,2.78,1.43,5.27,3.05,7.46,4.87,2.19,1.82,3.96,3.91,5.31,6.26,1.35,2.36,2.03,5.13,2.03,8.32,0,3.82-.84,7.22-2.53,10.18-1.69,2.97-3.94,5.47-6.76,7.51-2.82,2.04-6.06,3.59-9.71,4.65s-7.45,1.59-11.38,1.59c-1.97,0-4-.15-6.09-.45-2.1-.3-4.13-.74-6.09-1.33-1.97-.59-3.83-1.33-5.59-2.2-1.76-.87-3.3-1.87-4.62-3-1.32-1.13-2.36-2.39-3.12-3.79-.76-1.39-1.14-2.92-1.14-4.59,0-1.45.31-2.67.92-3.67s1.42-1.82,2.42-2.45,2.12-1.1,3.37-1.42c1.24-.31,2.51-.49,3.81-.53l.45.39Z"/>
    <path class="cls-4" d="M1173.98,466.32c-1.56,7.05-2.87,14.33-3.92,21.84-1.06,7.51-1.96,14.92-2.7,22.23,1.74.08,3.44.13,5.09.17,1.65.04,3.19.08,4.62.11,1.43.04,2.73.06,3.9.06h2.92c3.38,0,6.14-.2,8.29-.61.19.63.33,1.21.45,1.73s.17,1,.17,1.45c0,1.63-.68,2.69-2.03,3.17-1.35.48-3.31.72-5.87.72s-5.19-.15-8.21-.44c-3.02-.3-6.34-.58-9.93-.83-.41,3.97-.75,7.84-1.03,11.6-.28,3.77-.5,7.32-.67,10.66-.17,3.34-.29,6.44-.36,9.29-.07,2.86-.11,5.34-.11,7.46,0,3.97.2,7.51.61,10.63.41,3.12,1.13,5.76,2.17,7.93,1.04,2.17,2.47,3.83,4.29,4.98,1.82,1.15,4.12,1.73,6.9,1.73,2,0,4.24-.35,6.71-1.06,2.47-.7,5.28-1.84,8.43-3.39,1,1,1.58,2.23,1.73,3.67-2.3,1.52-4.62,2.9-6.96,4.15-2.34,1.24-4.64,2.31-6.9,3.2-2.26.89-4.45,1.58-6.57,2.06s-4.12.72-6.01.72c-2.49,0-4.76-.45-6.82-1.36-2.06-.91-3.84-2.52-5.34-4.84-1.5-2.32-2.67-5.44-3.51-9.38-.83-3.93-1.25-8.9-1.25-14.91,0-3.38.06-6.85.17-10.43.11-3.58.26-7.21.45-10.88s.43-7.35.72-11.02c.3-3.67.63-7.29,1-10.85-2.93.04-5.65.16-8.15.36-2.5.2-4.65.53-6.43.97-.11-.22-.17-.48-.17-.78,0-.78.38-1.51,1.14-2.2.76-.69,1.82-1.31,3.17-1.86,1.35-.56,2.98-1.02,4.87-1.39,1.89-.37,3.97-.63,6.23-.78.85-7.75,1.76-15.08,2.73-21.98.96-6.9,1.93-13.06,2.89-18.48.19-.96.53-1.76,1.03-2.39.5-.63,1.09-1.13,1.75-1.5.67-.37,1.39-.63,2.17-.78.78-.15,1.54-.22,2.28-.22,1.22,0,2.33.13,3.31.39.98.26,1.9.63,2.75,1.11Z"/>
    <path class="cls-4" d="M1247.05,529.43c0-2.93-.48-5.47-1.45-7.62-.96-2.15-2.23-3.91-3.78-5.29-1.56-1.37-3.32-2.39-5.29-3.06-1.97-.67-3.93-1-5.9-1-2.63,0-4.86.28-6.68.83-1.82.56-3.29,1.32-4.42,2.28-1.13.96-1.95,2.11-2.45,3.42-.5,1.32-.75,2.74-.75,4.26,0,1.78.32,3.57.97,5.37.65,1.8,1.6,3.55,2.87,5.26l-.22.61c-2.11,1.04-4.25,1.56-6.4,1.56-1.26,0-2.44-.2-3.53-.58-1.09-.39-2.04-.95-2.84-1.7-.8-.74-1.43-1.65-1.89-2.73-.46-1.08-.7-2.28-.7-3.62,0-2.19.53-4.25,1.59-6.18,1.06-1.93,2.46-3.69,4.2-5.29,1.74-1.59,3.76-3.02,6.07-4.29,2.3-1.26,4.67-2.33,7.12-3.2,2.45-.87,4.91-1.54,7.37-2,2.47-.46,4.76-.7,6.87-.7,3.9,0,7.22.52,9.99,1.56,2.76,1.04,5.01,2.55,6.73,4.54,1.73,1.99,2.99,4.39,3.78,7.21s1.2,6.01,1.2,9.57c0,2.45-.1,5.14-.31,8.07-.2,2.93-.44,6-.7,9.21-.26,3.21-.49,6.52-.7,9.93-.2,3.41-.31,6.81-.31,10.18,0,5.34.99,9.36,2.98,12.05,1.98,2.69,4.59,4.03,7.82,4.03,2.86,0,6.05-1.06,9.57-3.17l1.61,2.39c-2.49,2.49-5.19,4.38-8.12,5.68-2.93,1.3-6.01,1.95-9.24,1.95-2.41,0-4.64-.41-6.68-1.22-2.04-.82-3.8-2.03-5.29-3.65-1.48-1.61-2.63-3.64-3.45-6.09-.82-2.45-1.22-5.29-1.22-8.51,0-.96.03-1.93.08-2.89.06-.96.18-1.98.36-3.06h-.33c-1.6,3.19-3.44,6.33-5.54,9.43-2.1,3.1-4.4,5.86-6.9,8.29-2.5,2.43-5.18,4.4-8.01,5.9-2.84,1.5-5.82,2.25-8.93,2.25-2.56,0-4.9-.45-7.01-1.33-2.11-.89-3.92-2.12-5.43-3.67-1.5-1.56-2.67-3.4-3.51-5.54-.83-2.13-1.25-4.46-1.25-6.98,0-3.26.6-6.23,1.81-8.9,1.21-2.67,2.87-5.06,5.01-7.18,2.13-2.12,4.68-3.94,7.65-5.48,2.97-1.54,6.2-2.82,9.68-3.84,3.49-1.02,7.18-1.78,11.07-2.28s7.86-.75,11.91-.75c.26-2.34.47-4.6.64-6.79s.25-4.6.25-7.24ZM1212.88,567.66c0,1.45.16,2.83.47,4.15.31,1.32.82,2.48,1.5,3.48s1.56,1.79,2.62,2.37,2.33.86,3.81.86c1.67,0,3.39-.39,5.18-1.17,1.78-.78,3.53-1.85,5.26-3.23,1.73-1.37,3.38-3.01,4.95-4.92,1.58-1.91,3-4,4.26-6.26,1.26-2.26,2.31-4.65,3.14-7.15.83-2.5,1.38-5.07,1.64-7.71-2.75.07-5.47.25-8.18.53-2.71.28-5.28.71-7.71,1.31-2.43.59-4.68,1.37-6.76,2.34-2.08.96-3.87,2.16-5.37,3.59-1.5,1.43-2.68,3.12-3.53,5.06-.85,1.95-1.28,4.2-1.28,6.76Z"/>
    <path class="cls-4" d="M1304.98,516.96c0,2.52-.08,5.22-.25,8.1-.17,2.88-.37,5.8-.61,8.76-.24,2.97-.5,5.93-.78,8.88-.28,2.95-.54,5.74-.78,8.38-.24,2.63-.45,5.06-.61,7.26s-.25,4.05-.25,5.54c0,4.42.83,7.64,2.5,9.68,1.67,2.04,3.9,3.06,6.68,3.06,3.15,0,6.38-1.7,9.68-5.09,3.3-3.39,6.46-8.36,9.46-14.89,3-6.53,5.56-13.87,7.68-22.01,2.11-8.14,3.47-16.93,4.06-26.35l11.8-1.45.89.06c-.33,3.53-.64,7.26-.92,11.21-.28,3.95-.53,7.9-.75,11.85s-.39,7.82-.5,11.6-.17,7.27-.17,10.46c0,6.05.35,10.99,1.06,14.83.7,3.84,1.61,6.86,2.73,9.07,1.11,2.21,2.38,3.73,3.81,4.56,1.43.83,2.87,1.25,4.31,1.25.85,0,1.7-.11,2.53-.33s1.62-.49,2.37-.81c.74-.31,1.42-.66,2.03-1.03s1.14-.7,1.59-1l1.84,2.56c-1.08,1.11-2.3,2.16-3.67,3.14-1.37.98-2.82,1.84-4.34,2.56-1.52.72-3.12,1.29-4.79,1.7-1.67.41-3.36.61-5.06.61-2.15,0-4.24-.43-6.26-1.28-2.02-.85-3.81-2.28-5.37-4.29-1.56-2-2.81-4.67-3.76-8.01s-1.42-7.49-1.42-12.47c0-1.59.04-3.21.11-4.84.07-1.63.19-3.36.33-5.18.15-1.82.34-3.77.58-5.87.24-2.1.53-4.4.86-6.93l-.61-.11c-2.52,9.31-5.26,17.12-8.21,23.43-2.95,6.31-5.97,11.39-9.07,15.25-3.1,3.86-6.21,6.61-9.32,8.26-3.12,1.65-6.09,2.48-8.9,2.48-2.11,0-4.15-.36-6.09-1.08s-3.68-1.91-5.2-3.56c-1.52-1.65-2.74-3.83-3.65-6.54-.91-2.71-1.36-6.05-1.36-10.02,0-2.6.15-5.61.45-9.04.3-3.43.62-7.09.97-10.96.35-3.88.68-7.88.97-12.02.3-4.14.44-8.23.44-12.27,0-1.63-.06-3.04-.17-4.23s-.35-2.17-.72-2.95c-.37-.78-.92-1.35-1.64-1.72-.72-.37-1.72-.56-2.98-.56s-2.9.19-4.93.56c-2.02.37-4.15.87-6.37,1.5l-.83-4.01c3.04-1.08,5.87-2.01,8.49-2.81,2.62-.8,4.95-1.46,7.01-1.98,2.06-.52,3.8-.91,5.23-1.17,1.43-.26,2.48-.39,3.14-.39,1.34,0,2.43.24,3.28.72.85.48,1.54,1.19,2.06,2.11.52.93.88,2.04,1.08,3.34.2,1.3.31,2.78.31,4.45Z"/>
    <path class="cls-4" d="M1385.23,588.08l-.89-.06c.3-3.52.58-7.36.83-11.52.26-4.16.5-8.38.72-12.66s.42-8.53.58-12.74c.17-4.21.31-8.14.45-11.8.13-3.65.22-6.93.28-9.82.06-2.89.08-5.17.08-6.84,0-1.37-.06-2.56-.17-3.56s-.36-1.84-.75-2.5c-.39-.67-.96-1.16-1.7-1.48-.74-.31-1.74-.47-3-.47-.63,0-1.28.04-1.95.11-.67.08-1.41.19-2.23.33-.82.15-1.73.34-2.75.58-1.02.24-2.2.53-3.53.86l-.83-4.01c6.16-2.23,11.15-3.79,14.97-4.7,3.82-.91,6.4-1.36,7.74-1.36,2.45,0,4.2.71,5.26,2.14,1.06,1.43,1.59,3.55,1.59,6.37,0,.26-.04,1.02-.11,2.28-.07,1.26-.18,2.9-.31,4.93-.13,2.02-.29,4.37-.47,7.04-.19,2.67-.4,5.54-.64,8.6-.24,3.06-.51,6.25-.81,9.57-.3,3.32-.61,6.63-.95,9.93l.56.06c1.78-7.27,3.79-14.05,6.04-20.34,2.24-6.29,4.77-11.75,7.57-16.39,2.8-4.64,5.88-8.28,9.24-10.94,3.36-2.65,7.04-3.98,11.05-3.98,1.41,0,2.73.22,3.95.67s2.28,1.07,3.17,1.86c.89.8,1.59,1.74,2.11,2.84.52,1.09.78,2.29.78,3.59,0,1.67-.36,3.27-1.08,4.81-.72,1.54-1.86,2.9-3.42,4.09h-.45c-1.56-1.3-3.03-2.24-4.42-2.81-1.39-.58-2.87-.86-4.42-.86-1.67,0-3.28.32-4.84.95-1.56.63-2.99,1.54-4.28,2.73-2.12,1.93-4.08,4.48-5.9,7.65-1.82,3.17-3.48,6.69-4.98,10.55-1.5,3.86-2.86,7.91-4.06,12.16-1.21,4.25-2.25,8.38-3.12,12.41-.87,4.03-1.58,7.81-2.12,11.35-.54,3.54-.92,6.52-1.14,8.93l-11.63,1.45Z"/>
    <path class="cls-4" d="M1487.79,529.43c0-2.93-.48-5.47-1.45-7.62-.97-2.15-2.23-3.91-3.78-5.29s-3.32-2.39-5.29-3.06c-1.97-.67-3.93-1-5.9-1-2.63,0-4.86.28-6.68.83-1.82.56-3.29,1.32-4.42,2.28-1.13.96-1.95,2.11-2.45,3.42-.5,1.32-.75,2.74-.75,4.26,0,1.78.32,3.57.97,5.37.65,1.8,1.6,3.55,2.87,5.26l-.22.61c-2.11,1.04-4.25,1.56-6.4,1.56-1.26,0-2.44-.2-3.53-.58-1.09-.39-2.04-.95-2.84-1.7-.8-.74-1.43-1.65-1.89-2.73-.46-1.08-.7-2.28-.7-3.62,0-2.19.53-4.25,1.59-6.18,1.06-1.93,2.46-3.69,4.2-5.29,1.74-1.59,3.77-3.02,6.07-4.29,2.3-1.26,4.67-2.33,7.12-3.2,2.45-.87,4.91-1.54,7.37-2,2.47-.46,4.76-.7,6.87-.7,3.9,0,7.23.52,9.99,1.56,2.76,1.04,5.01,2.55,6.73,4.54,1.72,1.99,2.99,4.39,3.78,7.21.8,2.82,1.2,6.01,1.2,9.57,0,2.45-.1,5.14-.31,8.07-.2,2.93-.44,6-.7,9.21-.26,3.21-.49,6.52-.7,9.93-.2,3.41-.31,6.81-.31,10.18,0,5.34.99,9.36,2.98,12.05,1.98,2.69,4.59,4.03,7.82,4.03,2.86,0,6.05-1.06,9.57-3.17l1.61,2.39c-2.49,2.49-5.19,4.38-8.12,5.68-2.93,1.3-6.01,1.95-9.24,1.95-2.41,0-4.64-.41-6.68-1.22-2.04-.82-3.8-2.03-5.29-3.65-1.48-1.61-2.63-3.64-3.45-6.09-.82-2.45-1.22-5.29-1.22-8.51,0-.96.03-1.93.08-2.89.06-.96.18-1.98.36-3.06h-.33c-1.6,3.19-3.44,6.33-5.54,9.43-2.1,3.1-4.4,5.86-6.9,8.29-2.5,2.43-5.18,4.4-8.01,5.9-2.84,1.5-5.82,2.25-8.93,2.25-2.56,0-4.9-.45-7.01-1.33-2.11-.89-3.92-2.12-5.43-3.67-1.5-1.56-2.67-3.4-3.51-5.54-.83-2.13-1.25-4.46-1.25-6.98,0-3.26.6-6.23,1.81-8.9,1.21-2.67,2.88-5.06,5.01-7.18,2.13-2.12,4.68-3.94,7.65-5.48,2.97-1.54,6.2-2.82,9.68-3.84s7.18-1.78,11.07-2.28,7.87-.75,11.91-.75c.26-2.34.47-4.6.64-6.79s.25-4.6.25-7.24ZM1453.62,567.66c0,1.45.16,2.83.47,4.15.31,1.32.82,2.48,1.5,3.48.69,1,1.56,1.79,2.62,2.37s2.33.86,3.81.86c1.67,0,3.4-.39,5.18-1.17,1.78-.78,3.53-1.85,5.26-3.23,1.73-1.37,3.38-3.01,4.95-4.92,1.58-1.91,3-4,4.26-6.26,1.26-2.26,2.31-4.65,3.14-7.15.83-2.5,1.38-5.07,1.64-7.71-2.75.07-5.47.25-8.18.53-2.71.28-5.28.71-7.71,1.31-2.43.59-4.68,1.37-6.76,2.34-2.08.96-3.87,2.16-5.37,3.59-1.5,1.43-2.68,3.12-3.53,5.06-.85,1.95-1.28,4.2-1.28,6.76Z"/>
    <path class="cls-4" d="M1533.26,522.64c0-1.52-.11-2.8-.33-3.84-.22-1.04-.57-1.86-1.03-2.48-.46-.61-1.05-1.05-1.75-1.31-.71-.26-1.54-.39-2.5-.39-1.34,0-2.93.19-4.79.56-1.86.37-3.97.87-6.34,1.5l-.83-4.01c2.63-.93,5.17-1.77,7.6-2.53,2.43-.76,4.67-1.42,6.71-1.98,2.04-.56,3.84-.98,5.4-1.28s2.78-.45,3.67-.45c2.15,0,3.83.64,5.04,1.92,1.21,1.28,1.81,3.48,1.81,6.59,0,.37-.04,1.23-.11,2.59-.07,1.35-.18,3.07-.31,5.15-.13,2.08-.29,4.46-.47,7.15-.19,2.69-.4,5.56-.64,8.6-.24,3.04-.51,6.19-.81,9.43-.3,3.25-.61,6.48-.95,9.71l.33.06c2.82-9.57,5.84-17.65,9.07-24.24,3.23-6.58,6.51-11.93,9.85-16.03s6.66-7.06,9.96-8.88c3.3-1.82,6.46-2.73,9.46-2.73,2.08,0,4.08.39,6.01,1.17,1.93.78,3.65,2.02,5.15,3.73,1.5,1.71,2.7,3.91,3.59,6.59.89,2.69,1.34,5.95,1.34,9.77,0,1.11-.06,2.61-.19,4.48-.13,1.87-.29,3.96-.47,6.26-.19,2.3-.4,4.74-.64,7.32-.24,2.58-.45,5.11-.64,7.6-.19,2.49-.34,4.85-.47,7.1-.13,2.25-.19,4.2-.19,5.87,0,2.89.12,5.25.36,7.07.24,1.82.64,3.26,1.2,4.31.56,1.06,1.3,1.78,2.23,2.17.93.39,2.06.58,3.39.58,1.93,0,3.93-.27,6.01-.81,2.08-.54,4.17-1.29,6.29-2.25l1.06,2.89c-1.34,1.08-3.02,2.17-5.06,3.28-2.04,1.11-4.18,2.13-6.43,3.06-2.25.93-4.48,1.68-6.71,2.25s-4.19.86-5.9.86c-2,0-3.58-.54-4.73-1.61-1.15-1.08-2.01-2.54-2.59-4.4-.58-1.85-.95-4.03-1.11-6.51-.17-2.49-.25-5.16-.25-8.01,0-3.49.12-7.08.36-10.77.24-3.69.51-7.21.81-10.55.3-3.34.57-6.37.81-9.1.24-2.73.36-4.91.36-6.54,0-4.34-.82-7.54-2.45-9.6-1.63-2.06-3.8-3.09-6.51-3.09-2.15,0-4.42.91-6.79,2.73-2.37,1.82-4.74,4.31-7.1,7.49-2.36,3.17-4.62,6.92-6.79,11.24-2.17,4.32-4.13,9-5.87,14.02-1.74,5.03-3.19,10.29-4.34,15.78-1.15,5.49-1.87,10.98-2.17,16.47l-11.63,1.45-.89-.06c.3-3.52.57-7.36.83-11.52.26-4.16.5-8.38.72-12.66s.42-8.53.58-12.74c.17-4.21.31-8.14.45-11.8.13-3.65.22-6.93.28-9.82.06-2.89.08-5.17.08-6.84Z"/>
    <path class="cls-4" d="M1649.29,466.32c-1.56,7.05-2.87,14.33-3.92,21.84-1.06,7.51-1.96,14.92-2.7,22.23,1.74.08,3.44.13,5.09.17,1.65.04,3.19.08,4.62.11,1.43.04,2.73.06,3.9.06h2.92c3.38,0,6.14-.2,8.29-.61.19.63.33,1.21.45,1.73s.17,1,.17,1.45c0,1.63-.68,2.69-2.03,3.17-1.35.48-3.31.72-5.87.72s-5.19-.15-8.21-.44c-3.02-.3-6.34-.58-9.93-.83-.41,3.97-.75,7.84-1.03,11.6-.28,3.77-.5,7.32-.67,10.66s-.29,6.44-.36,9.29c-.07,2.86-.11,5.34-.11,7.46,0,3.97.2,7.51.61,10.63.41,3.12,1.13,5.76,2.17,7.93,1.04,2.17,2.47,3.83,4.28,4.98,1.82,1.15,4.12,1.73,6.9,1.73,2,0,4.24-.35,6.71-1.06,2.47-.7,5.28-1.84,8.43-3.39,1,1,1.58,2.23,1.73,3.67-2.3,1.52-4.62,2.9-6.96,4.15-2.34,1.24-4.64,2.31-6.9,3.2-2.26.89-4.45,1.58-6.57,2.06s-4.12.72-6.01.72c-2.49,0-4.76-.45-6.82-1.36s-3.84-2.52-5.34-4.84c-1.5-2.32-2.67-5.44-3.51-9.38-.83-3.93-1.25-8.9-1.25-14.91,0-3.38.06-6.85.17-10.43.11-3.58.26-7.21.45-10.88.19-3.67.43-7.35.72-11.02.3-3.67.63-7.29,1-10.85-2.93.04-5.65.16-8.15.36-2.5.2-4.65.53-6.43.97-.11-.22-.17-.48-.17-.78,0-.78.38-1.51,1.14-2.2.76-.69,1.82-1.31,3.17-1.86,1.35-.56,2.98-1.02,4.87-1.39,1.89-.37,3.97-.63,6.23-.78.85-7.75,1.76-15.08,2.73-21.98.96-6.9,1.93-13.06,2.89-18.48.19-.96.53-1.76,1.03-2.39.5-.63,1.09-1.13,1.75-1.5.67-.37,1.39-.63,2.17-.78.78-.15,1.54-.22,2.28-.22,1.22,0,2.33.13,3.31.39.98.26,1.9.63,2.75,1.11Z"/>
  </g>
</svg>